# xmcd CD database file
#
# Track frame offsets:
#	150
#	17352
#	30633
#	42528
#	60132
#	74421
#	87720
#	103920
#	115596
#	129701
#	144265
#	172905
#	185024
#	199136
#	215207
#	230580
#	243724
#	256669
#	271068
#	282939
#	297791
#
# Disc length: 4134 seconds
#
# Revision: 0
# Processed by: cddbd v1.5.1PL2 Copyright (c) Steve Scherf et al.
# Submitted via: CDex 1.60beta1
#
DISCID=39102415
DTITLE=Various Artist - Ladies of Song volume 2
DYEAR=2005
DGENRE=Jazz
TTITLE0=I cried for you - Sarah Vaughan
TTITLE1=Mama's got the Blues - Bessie Smith
TTITLE2=I love you, Yes I do - Dinah Washington
TTITLE3=I don't stand a ghost of a chance - Sarah Vaughan
TTITLE4=I want to cry - Dinah Washington
TTITLE5=I'll wait and pray - Sarah Vaughan
TTITLE6=If you don't I know who will - Bessie Smith
TTITLE7=It's funny - Dinah Washington
TTITLE8=Keeps on a-rainin' - Bessie Smith
TTITLE9=Jail house blues - Bessie Smith
TTITLE10=Jericho - Lena Horne
TTITLE11=It's too soon to know - Dinah Washington
TTITLE12=Lady luck blues - Bessie Smith
TTITLE13=Love - Lena Horne
TTITLE14=Lover man (Oh where can you be) - Sarah Vaughan
TTITLE15=Mad about the boy - Lena Horne
TTITLE16=I want to be loved - Dinah Washington
TTITLE17=Mean old bed bug blues - Bessie Smith
TTITLE18=Mean to me - Sarah Vaughan
TTITLE19=Midnight blues - Bessie Smith
TTITLE20=Moanin' low - Lena Horne
EXTD=YEAR: 2005
EXTT0=
EXTT1=
EXTT2=
EXTT3=
EXTT4=
EXTT5=
EXTT6=
EXTT7=
EXTT8=
EXTT9=
EXTT10=
EXTT11=
EXTT12=
EXTT13=
EXTT14=
EXTT15=
EXTT16=
EXTT17=
EXTT18=
EXTT19=
EXTT20=
PLAYORDER=
